<svg version="1.2" xmlns="http://www.w3.org/2000/svg" viewBox="0 0 1438 380"
        fill="transparent" stroke="transparent">
<title>Polygon 1-svg</title>
<defs>
<filter id="blur" x="0" y="0" width="200%" height="200%">
    <feGaussianBlur in="SourceGraphic" stdDeviation="10"/>
</filter>
</defs>
<g id="Layer">
<path id="Layer"
      d="m1438 0v380h-1442v-72.3c0 0-6 0 127.1 0 133 0 216.1-38 289.1-61 73-23.1 205.6-3 325.6-17 120.1-14.1 250.1-99.6 340.1-156.2 90.1-56.5 360.1-73.5 360.1-73.5z"/>
<path id="Layer" fill-rule="evenodd"
      d="m-3.5 379.5v-71.3h0.1 0.1 0.1 0.1 0.1 0.1 0.1 0.1 0.1 0.1 0.1 0.1 0.1 0.1 0.1 0.1 0.1 0.1 0.1 0.1 0.1 0.1 0.1 0.1 0.1 0.1 0.1 0.1 0.1 0.1 0.1 0.1 0.1 0.1 0.1 0.1 0.1 0.1 0.1 0.1 0.1 0.1 0.1 0.1 0.1 0.1 0.1 0.1 0.1 0.1 0.1 0.1 0.1 0.1 0.1 0.1 0.2 0.1 0.1 0.1 0.1 0.1 0.1 0.1 0.1 0.2 0.1 0.1 0.1 0.1 0.1 0.2 0.1 0.1 0.2 0.1 0.1 0.1 0.2 0.1 0.1 0.2 0.1 0.2 0.1 0.1 0.2 0.1 0.2 0.1 0.2 0.1 0.2 0.1 0.2 0.1 0.2 0.2 0.1 0.2 0.1 0.2 0.2 0.1 0.2 0.2 0.1 0.2 0.2 0.2 0.1 0.2 0.2 0.2 0.2 0.2 0.1 0.2 0.2 0.2 0.2 0.2 0.2 0.2 0.2 0.2 0.2 0.2 0.2 0.2 0.2 0.3 0.2 0.2 0.2 0.2 0.2 0.3 0.2 0.2 0.2 0.3 0.2 0.2 0.3 0.2 0.2 0.3 0.2 0.3 0.2 0.2 0.3 0.2 0.3 0.2 0.3 0.3 0.2 0.3 0.2 0.3 0.3 0.2 0.3 0.3 0.3 0.2 0.3 0.3 0.3 0.2 0.3 0.3 0.3 0.3 0.3 0.3 0.3 0.3 0.3 0.3 0.3 0.3 0.3 0.3 0.3 0.3 0.4 0.3 0.3 0.3 0.4 0.3 0.3 0.3 0.4 0.3 0.3 0.4 0.3 0.4 0.3 0.4 0.3 0.4 0.3 0.4 0.3 0.4 0.4 0.3 0.4 0.4 0.3 0.4 0.4 0.4 0.3 0.4 0.4 0.4 0.4 0.4 0.4 0.4 0.4 0.4 0.4 0.4 0.4 0.4 0.4 0.4 0.4 0.5 0.4 0.4 0.4 0.5 0.4 0.4 0.5 0.4 0.4 0.5 0.4 0.5 0.4 0.5 0.4 0.5 0.5 0.4 0.5 0.4 0.5 0.5 0.5 0.4 0.5 0.5 0.5 0.5 0.5 0.5 0.5 0.5 0.5 0.5 0.5 0.5 0.5 0.5 0.5 0.5 0.5 0.6 0.5 0.5 0.6 0.5 0.5 0.6 0.5 0.6 0.5 0.5 0.6 0.6 0.5 0.6 0.5 0.6 0.6 0.5 0.6 0.6 0.6 0.6 0.5 0.6 0.6 0.6 0.6 0.6 0.6 0.6 0.6 0.6 0.6 0.7 0.6 0.6 0.6 0.7 0.6 0.6 0.7 0.6 0.6 0.7 0.6 0.7 0.6 0.7 0.6 0.7 0.7 0.6 0.7 0.7 0.7 0.6 0.7 0.7 0.7 0.7 0.7 0.7 0.7 0.7 0.7 0.7 0.7 0.7 0.7 0.8 0.7 0.7 0.7 0.8 0.7 0.8 0.7 0.7 0.8 0.8 0.7 0.8 0.7 0.8 0.8 0.7 0.8 0.8c110 0 185.9-26 250.1-48 13.5-4.6 26.5-9.1 39.1-13.1 36.5-11.4 87.8-12.2 145.1-11.8q9.6 0 19.5 0.1c51.9 0.5 107.7 1 161-5.3 60.1-7 122.7-31.9 181.5-62.1 52.3-26.9 101.6-58 143.6-84.5q7.8-4.9 15.2-9.5c22.4-14.1 56.1-25.8 94.1-35.3 38-9.5 80.1-17 119.5-22.6 39.4-5.7 75.9-9.6 102.7-12.1 13.3-1.2 24.2-2.1 31.8-2.7 3.7-0.2 6.7-0.5 8.7-0.6q1.5-0.1 2.3-0.2 0.1 0 0.2 0v379z"/>
</g>
        </svg>